<?xml version="1.0" encoding="iso-8859-1"?>
<!-- Generator: Adobe Illustrator 19.0.0, SVG Export Plug-In . SVG Version: 6.00 Build 0)  -->
<svg version="1.1" id="Layer_1" xmlns="http://www.w3.org/2000/svg" xmlns:xlink="http://www.w3.org/1999/xlink" x="0px" y="0px"
	 viewBox="0 0 512 512" style="enable-background:new 0 0 512 512;" xml:space="preserve">
<path style="fill:#6C489C;" d="M222.544,328.374h-47.805H83.658C37.528,328.374,0,290.845,0,244.716v-58.44
	c0-46.129,37.529-83.658,83.658-83.658H250.96c46.13,0,83.659,37.529,83.659,83.658v58.44c0,46.129-37.529,83.658-83.659,83.658
	H222.544 M177.38,284.343h46.421h27.159c21.851,0,39.628-17.777,39.628-39.628v-58.44c0-21.851-17.777-39.628-39.628-39.628H83.658
	c-21.851,0-39.628,17.777-39.628,39.628v58.44c0,21.851,17.777,39.628,39.628,39.628H177.38"/>
<path style="fill:#52D6C6;" d="M338.4,183.626h89.941c46.13,0,83.659,37.529,83.659,83.658v58.44
	c0,46.129-37.529,83.658-83.659,83.658H261.039c-46.13,0-83.658-37.529-83.658-83.658v-58.44c0-46.129,37.529-83.658,83.658-83.658
	h24.406L338.4,183.626L338.4,183.626z M290.589,227.657h-29.549c-21.851,0-39.628,17.777-39.628,39.628v58.44
	c0,2.577,0.247,5.096,0.72,7.538c3.53,18.259,19.635,32.09,38.908,32.09h167.302c21.851,0,39.628-17.777,39.628-39.628v-58.44
	c0-21.851-17.777-39.628-39.628-39.628H334.62H290.589z"/>
<rect x="221.203" y="284.345" style="opacity:0.1;enable-background:new    ;" width="16.617" height="44.031"/>
<polygon style="fill:#6C489C;" points="290.589,235.073 290.501,183.551 334.578,183.551 334.619,235.073 "/>
<g>
</g>
<g>
</g>
<g>
</g>
<g>
</g>
<g>
</g>
<g>
</g>
<g>
</g>
<g>
</g>
<g>
</g>
<g>
</g>
<g>
</g>
<g>
</g>
<g>
</g>
<g>
</g>
<g>
</g>
</svg>
